<?xml version="1.0" encoding="utf-8"?>
<!-- Generator: Adobe Illustrator 14.0.0, SVG Export Plug-In . SVG Version: 6.00 Build 43363)  -->
<!DOCTYPE svg PUBLIC "-//W3C//DTD SVG 1.1//EN" "http://www.w3.org/Graphics/SVG/1.1/DTD/svg11.dtd">
<svg version="1.1" id="レイヤー_1" xmlns="http://www.w3.org/2000/svg" xmlns:xlink="http://www.w3.org/1999/xlink" x="0px"
	 y="0px" width="516px" height="232px" viewBox="0 0 516 232" enable-background="new 0 0 516 232" xml:space="preserve">
<g>
	<path fill="#A1D9F1" d="M361.26,45.966c0,1.935-1.85,3.118-5.551,3.546c-0.104,0-2.416,0-6.938,0h-30.067
		c-12.851,13.528-19.789,20.854-20.815,21.982c-9.56,10.967-14.34,18.807-14.34,23.519c0,3.074,2.005,4.611,6.014,4.611
		c5.242,0,12.386-3.063,21.433-9.189c6.064-4.493,12.128-9.037,18.194-13.631c0.309-0.205,0.616-0.255,0.925-0.154
		c0.41,0.104,0.617,0.359,0.617,0.766c0,0.614-0.207,1.125-0.617,1.535c-9.867,8.179-16.756,13.598-20.661,16.255
		c-9.459,6.543-17.322,9.815-23.591,9.815c-2.363,0-4.291-0.872-5.783-2.614c-1.488-1.742-2.235-3.845-2.235-6.308
		c0-5.638,4.833-13.942,14.494-24.914c6.989-7.177,13.928-14.405,20.815-21.685l-51.5-1.386c-1.334,0-1.797-0.819-1.387-2.459
		c0.207-0.819,1.183-1.231,2.93-1.231h55.045l12.799-12.489c0.718-0.718,1.9-1.08,3.546-1.08c0.513,0,0.976,0.309,1.388,0.925
		c0.309,0.72,0.309,1.233,0,1.542l-12.489,11.102L361.26,45.966z"/>
	<path fill="#A1D9F1" d="M389.785,77.416c0,0.614-0.207,1.125-0.617,1.535c-9.867,8.179-16.756,13.598-20.661,16.255
		c-9.56,6.543-17.477,9.815-23.745,9.815c-5.346,0-8.018-3.804-8.018-11.41c-2.468,2.058-5.759,4.113-9.869,6.168
		c-4.418,2.158-7.863,3.238-10.33,3.238c-1.851,0-3.598-0.438-5.242-1.311c-1.644-0.872-2.468-2.029-2.468-3.469
		c0-4.214,3.882-9.353,11.642-15.419c7.76-6.064,14.621-9.097,20.584-9.097c3.598,0,5.396,0.875,5.396,2.621
		c0,1.75-0.592,3.137-1.772,4.164c-1.183,1.029-2.39,1.44-3.624,1.233c0.102,0-0.207-0.718-0.925-2.159
		c-0.72-1.438-1.851-2.159-3.392-2.159c-3.908,0-8.25,2.058-13.029,6.167c-4.78,4.113-7.17,7.763-7.17,10.948
		c0,2.058,0.721,3.084,2.158,3.084c4.934,0,10.331-1.952,16.189-5.859c1.439-1.026,3.547-3.134,6.322-6.322
		c2.055-2.364,3.701-3.443,4.935-3.238c1.233,0,1.851,0.511,1.851,1.53c0,0.713-0.798,2.472-2.391,5.274
		c-1.595,2.804-2.39,4.766-2.39,5.886c0,3.568,1.747,5.351,5.242,5.351c4.419,0,11.307-3.166,20.661-9.497
		c2.364-1.532,8.736-6.177,19.12-13.94c0.309-0.205,0.617-0.255,0.925-0.154C389.578,76.753,389.785,77.009,389.785,77.416z"/>
	<path fill="#A1D9F1" d="M442.672,77.883c0,0.516-2.775,3.084-8.326,7.709c-5.242,4.216-9.098,7.146-11.564,8.789
		c-12.131,8.223-23.591,12.335-34.385,12.335c-3.907,0-7.092-1.132-9.56-3.392c-2.467-2.263-3.7-5.036-3.7-8.327
		c0-4.831,3.188-10.124,9.56-15.881c6.886-6.373,14.133-9.56,21.741-9.56c3.289,0,4.934,1.388,4.934,4.163
		c0,2.879-2.107,5.604-6.322,8.172c-3.804,2.366-7.041,3.546-9.713,3.546c-2.159,0-3.238-0.513-3.238-1.542
		c0-2.876,1.438-4.317,4.317-4.317c0.409,0,0.976,0.181,1.696,0.54c0.718,0.361,1.643,0.54,2.775,0.54
		c1.233,0,2.467-0.703,3.7-2.113c1.233-1.409,1.851-2.669,1.851-3.777c0-1.007-1.234-1.511-3.701-1.511
		c-4.42,0-9.072,2.289-13.954,6.861c-4.884,4.575-7.323,8.661-7.323,12.258c0,2.674,1.132,4.934,3.392,6.784
		c2.26,1.851,5.242,2.775,8.942,2.775c5.859,0,12.799-2.209,20.816-6.63c5.242-2.877,11.307-6.938,18.194-12.181
		c5.652-4.418,8.635-6.63,8.943-6.63C442.363,76.496,442.672,76.958,442.672,77.883z"/>
	<path fill="#A1D9F1" d="M516.066,78.038c0,0.617-0.207,1.132-0.617,1.542c-18.606,15.626-33.563,23.437-44.869,23.437
		c-3.291,0-8.533-1.156-15.728-3.469c-7.196-2.313-11.205-3.469-12.027-3.469c-3.907,0-8.788,2.057-14.647,6.167
		c-3.598,2.568-7.194,5.139-10.794,7.709l-2.621-0.617c6.168-6.992,17.732-20.763,34.693-41.323
		c25.904-32.173,40.09-50.83,42.557-55.971c-1.133-0.101-2.571-0.617-4.317-1.542c-0.309-0.513-0.463-1.388-0.463-2.621
		c0-0.718,0.976-1.489,2.93-2.313c3.084-1.13,5.602-2.414,7.556-3.855h5.242c0.102,2.058-11.564,17.732-35.001,47.028
		c-24.157,30.325-36.39,45.744-36.697,46.257c6.577-3.493,13.207-7.04,19.891-10.639C464,77.679,473.664,74.337,480.14,74.337
		c3.493,0,5.243,1.234,5.243,3.701c0,2.058-0.979,3.084-2.93,3.084c-0.824,0-2.108-0.178-3.855-0.54
		c-1.749-0.359-3.033-0.54-3.854-0.54c-6.066,0-12.08,1.441-18.04,4.317c-3.908,1.851-6.734,3.65-8.48,5.397
		c12.952,5.242,22.512,7.864,28.679,7.864c7.194,0,19.737-6.731,37.623-20.199c0.309-0.205,0.617-0.255,0.925-0.154
		C515.859,77.37,516.066,77.628,516.066,78.038z"/>
</g>
<g>
	<path fill="#007AA0" d="M361.26,167.214c0,1.936-1.85,3.118-5.551,3.547c-0.104,0-2.416,0-6.938,0h-30.067
		c-12.851,13.527-19.789,20.854-20.815,21.982c-9.56,10.967-14.34,18.807-14.34,23.519c0,3.074,2.005,4.611,6.014,4.611
		c5.242,0,12.386-3.063,21.433-9.188c6.064-4.494,12.128-9.037,18.194-13.632c0.309-0.205,0.616-0.255,0.925-0.154
		c0.41,0.104,0.617,0.358,0.617,0.767c0,0.613-0.207,1.125-0.617,1.534c-9.867,8.179-16.756,13.598-20.661,16.255
		c-9.459,6.544-17.322,9.815-23.591,9.815c-2.363,0-4.291-0.872-5.783-2.614c-1.488-1.742-2.235-3.845-2.235-6.307
		c0-5.639,4.833-13.943,14.494-24.914c6.989-7.178,13.928-14.405,20.815-21.686l-51.5-1.386c-1.334,0-1.797-0.819-1.387-2.46
		c0.207-0.818,1.183-1.23,2.93-1.23h55.045l12.799-12.49c0.718-0.717,1.9-1.079,3.546-1.079c0.513,0,0.976,0.309,1.388,0.925
		c0.309,0.721,0.309,1.234,0,1.543l-12.489,11.102L361.26,167.214z"/>
	<path fill="#007AA0" d="M374.058,198.669c0,0.721-0.207,1.287-0.616,1.697c-3.496,4.215-8.738,8.738-15.729,13.568
		c-7.607,5.449-13.313,8.172-17.115,8.172c-2.674,0-4.986-0.926-6.938-2.775c-0.824,1.337-2.982,2.93-6.477,4.779
		c-4.213,2.159-8.018,3.238-11.41,3.238c-4.934,0-7.4-1.902-7.4-5.705c0-5.242,3.7-10.998,11.102-17.27
		c7.193-5.859,13.26-8.789,18.194-8.789s7.401,2.263,7.401,6.785c0,5.141-2.879,10.126-8.635,14.957
		c1.233,1.232,2.775,1.85,4.625,1.85c3.084,0,8.326-2.621,15.729-7.863c6.371-4.522,11.614-8.943,15.727-13.261
		c0.205-0.309,0.514-0.358,0.926-0.154C373.851,198.002,374.058,198.26,374.058,198.669z M331.964,217.019
		c-1.851-1.951-2.776-4.419-2.776-7.401c0-4.214,0.873-7.144,2.622-8.789c-11.41,5.243-17.115,10.743-17.115,16.499
		c0,3.495,1.44,5.242,4.317,5.242C323.021,222.57,327.338,220.719,331.964,217.019z M342.911,201.291
		c0-1.746-0.874-2.621-2.621-2.621c-2.058,0-3.907,0.952-5.551,2.854c-1.646,1.902-2.468,3.984-2.468,6.244
		c0,3.393,0.668,5.705,2.005,6.938C340.032,210.08,342.911,205.609,342.911,201.291z"/>
	<path fill="#007AA0" d="M427.1,199.132c0,0.516-2.775,3.084-8.326,7.709c-5.243,4.217-9.098,7.146-11.564,8.789
		c-12.131,8.223-23.592,12.336-34.385,12.336c-3.908,0-7.093-1.133-9.561-3.393c-2.467-2.262-3.7-5.035-3.7-8.326
		c0-4.83,3.188-10.123,9.56-15.881c6.887-6.373,14.133-9.561,21.741-9.561c3.289,0,4.935,1.388,4.935,4.163
		c0,2.879-2.108,5.604-6.322,8.173c-3.805,2.365-7.042,3.546-9.714,3.546c-2.159,0-3.237-0.513-3.237-1.542
		c0-2.877,1.438-4.317,4.316-4.317c0.41,0,0.977,0.181,1.696,0.54c0.718,0.361,1.644,0.539,2.775,0.539
		c1.233,0,2.468-0.703,3.7-2.113c1.234-1.408,1.851-2.669,1.851-3.777c0-1.007-1.233-1.51-3.7-1.51
		c-4.421,0-9.073,2.288-13.955,6.861c-4.883,4.574-7.323,8.66-7.323,12.258c0,2.674,1.132,4.934,3.392,6.784
		s5.242,2.775,8.943,2.775c5.859,0,12.798-2.209,20.816-6.63c5.242-2.877,11.307-6.938,18.194-12.182
		c5.651-4.418,8.635-6.63,8.942-6.63C426.791,197.745,427.1,198.208,427.1,199.132z"/>
	<path fill="#007AA0" d="M500.493,199.287c0,0.617-0.207,1.133-0.617,1.542c-18.606,15.626-33.563,23.437-44.869,23.437
		c-3.291,0-8.533-1.156-15.728-3.469c-7.196-2.313-11.205-3.469-12.027-3.469c-3.907,0-8.788,2.057-14.647,6.167
		c-3.597,2.568-7.194,5.14-10.794,7.71l-2.621-0.617c6.168-6.992,17.732-20.763,34.693-41.323
		c25.904-32.173,40.09-50.83,42.557-55.972c-1.133-0.101-2.57-0.616-4.317-1.541c-0.309-0.514-0.463-1.389-0.463-2.621
		c0-0.719,0.976-1.489,2.93-2.313c3.084-1.13,5.602-2.414,7.556-3.854h5.242c0.102,2.057-11.564,17.732-35.001,47.027
		c-24.157,30.326-36.39,45.744-36.697,46.258c6.577-3.493,13.207-7.039,19.891-10.639c12.848-6.682,22.512-10.023,28.987-10.023
		c3.493,0,5.243,1.234,5.243,3.701c0,2.058-0.979,3.084-2.93,3.084c-0.824,0-2.108-0.178-3.855-0.539
		c-1.749-0.359-3.033-0.541-3.854-0.541c-6.066,0-12.08,1.441-18.04,4.318c-3.908,1.85-6.734,3.649-8.48,5.396
		c12.952,5.242,22.512,7.863,28.679,7.863c7.194,0,19.737-6.73,37.623-20.199c0.309-0.204,0.617-0.255,0.925-0.154
		C500.286,198.619,500.493,198.876,500.493,199.287z"/>
</g>
<path fill="none" d="M123.198,115.526l67.389,25.608c0.209,0.078,0.401,0.163,0.607,0.242c-2.7-7.748-10.009-13.994-21.966-18.729
	l-64.76-25.732C106.033,105.162,112.265,111.369,123.198,115.526z"/>
<path fill="none" d="M217.621,14.316c-7.8-5.391-17.53-8.086-29.188-8.086c-19.193,0-39.911,5.93-62.149,17.791
	C102.07,36.782,89.965,50.079,89.965,63.918c0,7.612,3.417,13.73,10.221,18.371c5.039-11.463,15.672-22.18,31.907-32.147
	c23.54-14.455,49.236-21.687,77.093-21.687c7.44,0,14.042,0.667,19.81,1.996C227.919,24.198,224.133,18.816,217.621,14.316z"/>
<path fill="none" d="M172.449,186.158c-19.408,11.591-45.016,17.387-76.823,17.387c-26.165,0-48.449-4.404-66.873-13.185
	c2.236,10.379,9.894,18.817,23.013,25.302c15.811,7.816,37.018,11.726,63.615,11.726c26.054,0,47.753-4.768,65.098-14.29
	c17.34-9.527,26.012-21.484,26.012-35.868c0-6.86-2.938-12.762-8.791-17.716C193.206,169.902,184.794,178.785,172.449,186.158z"/>
<path fill="#007AA0" d="M28.224,181.255c0.692-4.811,3.458-8.797,8.312-11.957c5.661-3.682,8.491-5.615,8.491-5.796
	c0-2.156-3.328-2.245-9.974-0.27c-7.095,2.094-12.387,5.041-15.891,8.836C21.436,175.398,24.456,178.46,28.224,181.255z"/>
<path fill="#007AA0" d="M243.554,36.272c-0.761-0.485-1.56-0.939-2.377-1.378c-0.734,4.243-2.227,8.333-4.471,12.271
	c4.471,4.544,6.713,9.808,6.713,15.793c0,8.626-4.292,17.117-12.875,25.473c-8.584,8.356-17.521,12.534-26.821,12.534
	c-4.111,0-7.463-0.851-10.058-2.561c-2.595-1.706-3.888-3.639-3.888-5.795c0-0.897,0.358-1.794,1.078-2.695
	c0.716-0.897,1.078-1.706,1.078-2.426c0-2.156-1.529-3.234-4.582-3.234c-4.675,0-7.009,3.774-7.009,11.321
	c0,2.695,1.841,5.08,5.526,7.143c3.681,2.068,8.041,3.1,13.074,3.1c13.835,0,26.774-4.987,38.816-14.96
	c12.037-9.974,18.06-21.16,18.06-33.56C255.819,48.495,251.729,41.487,243.554,36.272z"/>
<path fill="#A1D9F1" d="M104.467,96.916l64.76,25.732c11.957,4.734,19.266,10.98,21.966,18.729
	c3.778,1.458,7.123,3.068,10.025,4.837c0.224-1.962,0.343-3.964,0.343-6.011c0-12.219-8.356-21.472-25.069-27.764l-67.389-25.608
	c-1.363-0.519-2.638-1.075-3.856-1.657c-0.789,2.463-1.189,4.942-1.189,7.44C104.059,94.107,104.206,95.537,104.467,96.916z"/>
<path fill="#A1D9F1" d="M229.46,7.577c-8.18-5.21-19.636-7.817-34.369-7.817c-27.856,0-53.553,7.231-77.093,21.687
	C94.455,35.901,82.688,51.932,82.688,69.529c0,10.66,4.804,18.663,14.378,24.028c0.464-3.833,1.503-7.588,3.12-11.268
	c-6.804-4.64-10.221-10.758-10.221-18.371c0-13.84,12.105-27.137,36.318-39.898c22.238-11.86,42.957-17.791,62.149-17.791
	c11.658,0,21.388,2.695,29.188,8.086c6.512,4.5,10.298,9.882,11.375,16.136c0.213,1.237,0.33,2.506,0.33,3.812
	c0,2.248-0.298,4.485-0.881,6.715c-1.654,6.326-5.647,12.579-11.994,18.758c-8.584,8.356-17.521,12.534-26.821,12.534
	c-4.111,0-7.463-0.851-10.058-2.561c-2.595-1.706-3.888-3.639-3.888-5.795c0-0.897,0.358-1.794,1.078-2.695
	c0.716-0.897,1.078-1.706,1.078-2.426c0-2.156-1.529-3.234-4.582-3.234c-4.675,0-7.009,3.774-7.009,11.321
	c0,2.695,1.841,5.08,5.526,7.143c3.681,2.068,8.041,3.1,13.074,3.1c13.835,0,26.774-4.987,38.816-14.96
	c5.703-4.726,10.039-9.727,13.041-14.997c2.244-3.939,3.737-8.029,4.471-12.271c0.357-2.063,0.548-4.158,0.548-6.292
	C241.725,19.8,237.635,12.792,229.46,7.577z"/>
<path fill="#007AA0" d="M140.377,52.715c22.238-11.86,42.957-17.791,62.149-17.791c10.083,0,18.72,2.021,25.917,6.053
	c0.583-2.229,0.881-4.467,0.881-6.715c0-1.306-0.117-2.574-0.33-3.812c-5.769-1.329-12.37-1.996-19.81-1.996
	c-27.856,0-53.553,7.231-77.093,21.687c-16.235,9.967-26.868,20.684-31.907,32.147c-1.617,3.679-2.656,7.435-3.12,11.268
	c-0.187,1.543-0.285,3.099-0.285,4.667c0,12.572,6.655,21.463,19.972,26.669l66.568,26.45c3.105,1.229,5.884,2.566,8.365,3.998
	c2.263,1.307,4.27,2.697,6.013,4.172c5.853,4.954,8.791,10.855,8.791,17.716c0,14.384-8.672,26.341-26.012,35.868
	c-17.344,9.522-39.043,14.29-65.098,14.29c-26.597,0-47.804-3.909-63.615-11.726c-13.119-6.484-20.776-14.923-23.013-25.302
	c-0.305-0.146-0.617-0.281-0.92-0.429c-5.244-2.558-9.721-5.275-13.486-8.141c-0.211,1.223-0.319,2.493-0.319,3.815
	c0,12.938,9.3,23.948,27.899,33.021s41.196,13.613,67.793,13.613c31.808,0,57.416-5.796,76.823-17.387
	c19.408-11.591,29.112-26.909,29.112-45.955c0-9.269-4.82-16.826-14.437-22.685c-2.902-1.769-6.247-3.379-10.025-4.837
	c-0.206-0.079-0.398-0.164-0.607-0.242l-67.389-25.608c-10.933-4.157-17.165-10.364-18.73-18.61
	c-0.262-1.379-0.408-2.809-0.408-4.302c0-2.498,0.4-4.978,1.189-7.44C108.829,73.992,120.534,63.174,140.377,52.715z"/>
<path fill="#A1D9F1" d="M191.686,155.341c-2.359,11.389-10.777,21.08-25.302,29.061c-17.344,9.522-39.043,14.29-65.098,14.29
	c-26.597,0-47.804-3.909-63.615-11.726c-3.557-1.758-6.691-3.667-9.448-5.711c-3.768-2.795-6.788-5.857-9.062-9.187
	c-3.459-5.065-5.211-10.741-5.211-17.045c0-5.931,2.83-10.735,8.491-14.421c5.661-3.682,8.491-5.615,8.491-5.796
	c0-2.156-3.328-2.245-9.974-0.27c-14.017,4.136-21.025,11.591-21.025,22.373c0,9.291,4.823,17.581,14.413,24.88
	c3.765,2.865,8.242,5.583,13.486,8.141c0.303,0.147,0.615,0.283,0.92,0.429c18.424,8.78,40.708,13.185,66.873,13.185
	c31.808,0,57.416-5.796,76.823-17.387c12.345-7.373,20.757-16.256,25.25-26.645C195.956,158.039,193.949,156.648,191.686,155.341z"
	/>
</svg>
